<svg width="20" height="21" viewBox="0 0 20 21" fill="none" xmlns="http://www.w3.org/2000/svg">
<path d="M6.41667 16.4998C7.42501 16.4998 8.25001 17.3248 8.25001 18.3332C8.25001 19.3415 7.42501 20.1665 6.41667 20.1665C5.40834 20.1665 4.58334 19.3415 4.58334 18.3332C4.58334 17.3248 5.40834 16.4998 6.41667 16.4998ZM15.5833 16.4998C16.5917 16.4998 17.4167 17.3248 17.4167 18.3332C17.4167 19.3415 16.5917 20.1665 15.5833 20.1665C14.575 20.1665 13.75 19.3415 13.75 18.3332C13.75 17.3248 14.575 16.4998 15.5833 16.4998ZM6.60001 13.5665C6.60001 13.6582 6.69167 13.7498 6.78334 13.7498H17.4167V15.5832H6.41667C5.40834 15.5832 4.58334 14.7582 4.58334 13.7498C4.58334 13.3832 4.675 13.1082 4.76667 12.8332L5.95834 10.6332L2.75001 3.6665H0.916672V1.83317H3.94167L7.88334 10.0832H14.3L17.875 3.6665L19.4333 4.58317L15.8583 10.9998C15.5833 11.5498 14.9417 11.9165 14.3 11.9165H7.42501L6.60001 13.3832V13.5665ZM8.61667 0.916504C9.35001 0.916504 9.90001 1.4665 9.90001 2.19984C9.90001 2.93317 9.35001 3.48317 8.61667 3.48317C7.88334 3.48317 7.33334 2.93317 7.33334 2.19984C7.33334 1.4665 7.975 0.916504 8.61667 0.916504ZM13.3833 8.24984C12.65 8.24984 12.1 7.69984 12.1 6.9665C12.1 6.23317 12.65 5.68317 13.3833 5.68317C14.1167 5.68317 14.6667 6.23317 14.6667 6.9665C14.6667 7.69984 14.025 8.24984 13.3833 8.24984ZM8.43334 8.24984L7.33334 7.14984L13.5667 0.916504L14.6667 2.0165L8.43334 8.24984Z" fill="#2D3657"/>
</svg>
