<svg width="14" height="20" viewBox="0 0 14 20" fill="none" xmlns="http://www.w3.org/2000/svg">
<path d="M9.18625 5.864C9.3553 5.83339 9.50677 5.7406 9.61082 5.60389C9.71488 5.46719 9.76398 5.29648 9.74845 5.12538C9.73293 4.95428 9.65391 4.7952 9.52695 4.67945C9.39999 4.5637 9.2343 4.49968 9.0625 4.5H4.9375L4.81375 4.511C4.6447 4.54161 4.49323 4.6344 4.38918 4.77111C4.28512 4.90781 4.23602 5.07852 4.25155 5.24962C4.26707 5.42072 4.34609 5.5798 4.47305 5.69555C4.60001 5.8113 4.7657 5.87532 4.9375 5.875H9.0625L9.18625 5.864ZM9.75 10C9.75005 10.1609 9.69366 10.3167 9.59065 10.4404C9.48764 10.564 9.34453 10.6475 9.18625 10.6765L9.0625 10.6875H4.9375C4.7657 10.6878 4.60001 10.6238 4.47305 10.5081C4.34609 10.3923 4.26707 10.2332 4.25155 10.0621C4.23602 9.89102 4.28512 9.72031 4.38918 9.58361C4.49323 9.4469 4.6447 9.35411 4.81375 9.3235L4.9375 9.3125H9.0625C9.24484 9.3125 9.41971 9.38493 9.54864 9.51386C9.67757 9.6428 9.75 9.81766 9.75 10ZM9.18625 15.478C9.3553 15.4474 9.50677 15.3546 9.61082 15.2179C9.71488 15.0812 9.76398 14.9105 9.74845 14.7394C9.73293 14.5683 9.65391 14.4092 9.52695 14.2934C9.39999 14.1777 9.2343 14.1137 9.0625 14.114H4.9375L4.81375 14.125C4.6447 14.1556 4.49323 14.2484 4.38918 14.3851C4.28512 14.5218 4.23602 14.6925 4.25155 14.8636C4.26707 15.0347 4.34609 15.1938 4.47305 15.3096C4.60001 15.4253 4.7657 15.4893 4.9375 15.489H9.0625L9.18625 15.478ZM0.125 3.125C0.125 2.39565 0.414731 1.69618 0.930456 1.18046C1.44618 0.664731 2.14565 0.375 2.875 0.375H11.125C11.8543 0.375 12.5538 0.664731 13.0695 1.18046C13.5853 1.69618 13.875 2.39565 13.875 3.125V16.875C13.875 17.6043 13.5853 18.3038 13.0695 18.8195C12.5538 19.3353 11.8543 19.625 11.125 19.625H2.875C2.14565 19.625 1.44618 19.3353 0.930456 18.8195C0.414731 18.3038 0.125 17.6043 0.125 16.875V3.125ZM11.125 1.75H2.875C2.51033 1.75 2.16059 1.89487 1.90273 2.15273C1.64487 2.41059 1.5 2.76033 1.5 3.125V16.875C1.5 17.2397 1.64487 17.5894 1.90273 17.8473C2.16059 18.1051 2.51033 18.25 2.875 18.25H11.125C11.4897 18.25 11.8394 18.1051 12.0973 17.8473C12.3551 17.5894 12.5 17.2397 12.5 16.875V3.125C12.5 2.76033 12.3551 2.41059 12.0973 2.15273C11.8394 1.89487 11.4897 1.75 11.125 1.75ZM9.18625 5.864C9.3553 5.83339 9.50677 5.7406 9.61082 5.60389C9.71488 5.46719 9.76398 5.29648 9.74845 5.12538C9.73293 4.95428 9.65391 4.7952 9.52695 4.67945C9.39999 4.5637 9.2343 4.49968 9.0625 4.5H4.9375L4.81375 4.511C4.6447 4.54161 4.49323 4.6344 4.38918 4.77111C4.28512 4.90781 4.23602 5.07852 4.25155 5.24962C4.26707 5.42072 4.34609 5.5798 4.47305 5.69555C4.60001 5.8113 4.7657 5.87532 4.9375 5.875H9.0625L9.18625 5.864ZM9.75 10C9.75005 10.1609 9.69366 10.3167 9.59065 10.4404C9.48764 10.564 9.34453 10.6475 9.18625 10.6765L9.0625 10.6875H4.9375C4.7657 10.6878 4.60001 10.6238 4.47305 10.5081C4.34609 10.3923 4.26707 10.2332 4.25155 10.0621C4.23602 9.89102 4.28512 9.72031 4.38918 9.58361C4.49323 9.4469 4.6447 9.35411 4.81375 9.3235L4.9375 9.3125H9.0625C9.24484 9.3125 9.41971 9.38493 9.54864 9.51386C9.67757 9.6428 9.75 9.81766 9.75 10ZM9.18625 15.478C9.3553 15.4474 9.50677 15.3546 9.61082 15.2179C9.71488 15.0812 9.76398 14.9105 9.74845 14.7394C9.73293 14.5683 9.65391 14.4092 9.52695 14.2934C9.39999 14.1777 9.2343 14.1137 9.0625 14.114H4.9375L4.81375 14.125C4.6447 14.1556 4.49323 14.2484 4.38918 14.3851C4.28512 14.5218 4.23602 14.6925 4.25155 14.8636C4.26707 15.0347 4.34609 15.1938 4.47305 15.3096C4.60001 15.4253 4.7657 15.4893 4.9375 15.489H9.0625L9.18625 15.478Z" fill="black"/>
</svg>
