<svg width="22" height="22" viewBox="0 0 22 22" fill="none" xmlns="http://www.w3.org/2000/svg">
<g clip-path="url(#clip0_391_11344)">
<path d="M8.97111 9.0508C8.15379 9.0508 7.35484 8.80836 6.67535 8.35415C5.99586 7.89995 5.46637 7.2544 5.15387 6.49918C4.84138 5.74396 4.75993 4.91302 4.91982 4.1115C5.07972 3.30997 5.47378 2.57389 6.05214 1.99639C6.63049 1.41889 7.36716 1.02592 8.16892 0.867211C8.97068 0.708501 9.8015 0.791184 10.5563 1.10479C11.311 1.41841 11.9558 1.94885 12.409 2.62901C12.8622 3.30917 13.1034 4.10848 13.1022 4.9258C13.099 6.01988 12.6625 7.06814 11.8883 7.8412C11.1141 8.61427 10.0652 9.04919 8.97111 9.0508ZM8.97111 2.01691C8.39578 2.01691 7.83338 2.18751 7.35501 2.50715C6.87665 2.82678 6.50381 3.28108 6.28364 3.81261C6.06347 4.34414 6.00587 4.92903 6.11811 5.49329C6.23035 6.05756 6.50739 6.57588 6.91421 6.98269C7.32103 7.38951 7.83934 7.66655 8.40361 7.77879C8.96788 7.89103 9.55276 7.83343 10.0843 7.61326C10.6158 7.39309 11.0701 7.02025 11.3898 6.54189C11.7094 6.06353 11.88 5.50112 11.88 4.9258C11.88 4.15431 11.5735 3.41443 11.028 2.8689C10.4825 2.32338 9.74259 2.01691 8.97111 2.01691Z" fill="#2D3657"/>
<path d="M10.0345 19.3598C9.90089 19.2262 9.79786 19.0652 9.73246 18.888C9.66705 18.7108 9.64081 18.5215 9.65556 18.3331H2.44445V14.8009C3.31095 13.8763 4.36194 13.144 5.5294 12.6513C6.69685 12.1586 7.95475 11.9166 9.22167 11.9409H9.66167C9.63362 11.736 9.65322 11.5274 9.71893 11.3313C9.78465 11.1352 9.89471 10.9569 10.0406 10.8103L10.1139 10.7431C9.82667 10.7431 9.50278 10.7064 9.22167 10.7064C7.73081 10.6711 6.25071 10.9674 4.88839 11.574C3.52607 12.1807 2.31558 13.0825 1.34445 14.2142C1.26512 14.32 1.22223 14.4487 1.22223 14.5809V18.3331C1.22223 18.6573 1.351 18.9681 1.58021 19.1974C1.80942 19.4266 2.1203 19.5553 2.44445 19.5553H10.2056L10.0345 19.3598Z" fill="#2D3657"/>
<path d="M16.4206 9.95489C16.4508 9.94863 16.482 9.94863 16.5122 9.95489C16.4819 9.94939 16.4509 9.94939 16.4206 9.95489Z" fill="#2D3657"/>
<path d="M20.5822 14.2511L19.36 13.8783C19.2726 13.5793 19.1538 13.2905 19.0056 13.0166L19.6167 11.88C19.6366 11.8345 19.6413 11.7838 19.6303 11.7355C19.6194 11.6871 19.5931 11.6435 19.5556 11.6111L18.6695 10.725C18.6359 10.6887 18.5912 10.6647 18.5424 10.657C18.4936 10.6492 18.4437 10.6581 18.4006 10.6822L17.2761 11.2933C16.9992 11.1376 16.7062 11.0126 16.4022 10.9205L16.0295 9.69829C16.0136 9.6533 15.9836 9.61467 15.9439 9.58822C15.9043 9.56177 15.8571 9.54892 15.8095 9.55162H14.5567C14.5086 9.55107 14.4616 9.56631 14.4229 9.595C14.3843 9.6237 14.3561 9.66428 14.3428 9.71051L13.97 10.9327C13.6639 11.0218 13.3688 11.1448 13.09 11.2994L11.9778 10.6883C11.9356 10.6647 11.8867 10.656 11.8389 10.6638C11.7912 10.6716 11.7475 10.6953 11.715 10.7311L10.8106 11.6111C10.777 11.6464 10.7554 11.6913 10.7489 11.7396C10.7423 11.7879 10.751 11.837 10.7739 11.88L11.385 12.9922C11.2234 13.2676 11.0942 13.5609 11 13.8661L9.77778 14.2327C9.73155 14.2461 9.69098 14.2743 9.66228 14.3129C9.63358 14.3515 9.61834 14.3985 9.6189 14.4466V15.6994C9.62251 15.7435 9.63973 15.7855 9.66819 15.8194C9.69665 15.8533 9.73495 15.8776 9.77778 15.8888L11 16.2616C11.0903 16.5614 11.2133 16.8504 11.3667 17.1233L10.7556 18.2905C10.7322 18.3323 10.7232 18.3806 10.7298 18.4281C10.7364 18.4755 10.7584 18.5194 10.7922 18.5533L11.6783 19.4394C11.713 19.4739 11.7576 19.4966 11.8059 19.5043C11.8541 19.512 11.9036 19.5043 11.9472 19.4822L13.09 18.8711C13.362 19.0173 13.6488 19.1341 13.9456 19.2194L14.3122 20.4416C14.3273 20.4869 14.3559 20.5264 14.3941 20.5548C14.4324 20.5832 14.4785 20.5992 14.5261 20.6005H15.7789C15.8268 20.6001 15.8733 20.5845 15.9117 20.5559C15.9502 20.5274 15.9786 20.4873 15.9928 20.4416L16.3656 19.1888C16.6584 19.1035 16.9412 18.9867 17.2089 18.8405L18.3639 19.4516C18.4064 19.4742 18.455 19.4822 18.5025 19.4745C18.5499 19.4668 18.5936 19.4437 18.6267 19.4088L19.5556 18.5777C19.5805 18.5419 19.5939 18.4992 19.5939 18.4555C19.5939 18.4118 19.5805 18.3692 19.5556 18.3333L18.9445 17.1844C19.0928 16.9148 19.2116 16.63 19.2989 16.335L20.5211 15.9622C20.5674 15.9488 20.6079 15.9207 20.6366 15.882C20.6653 15.8434 20.6806 15.7964 20.68 15.7483V14.465C20.6856 14.4237 20.6794 14.3817 20.6621 14.3439C20.6448 14.306 20.6171 14.2738 20.5822 14.2511ZM15.1861 17.1111C14.7819 17.1123 14.3864 16.9934 14.0498 16.7696C13.7133 16.5458 13.4507 16.2271 13.2954 15.8539C13.1402 15.4807 13.0993 15.0698 13.1778 14.6733C13.2564 14.2768 13.4509 13.9125 13.7367 13.6267C14.0226 13.3409 14.3868 13.1463 14.7833 13.0678C15.1798 12.9892 15.5907 13.0302 15.9639 13.1854C16.3371 13.3406 16.6559 13.6032 16.8797 13.9398C17.1035 14.2764 17.2223 14.6719 17.2211 15.0761C17.2195 15.6153 17.0046 16.132 16.6233 16.5132C16.242 16.8945 15.7253 17.1095 15.1861 17.1111Z" fill="#2D3657"/>
</g>
<defs>
<clipPath id="clip0_391_11344">
<rect width="22" height="22" fill="white"/>
</clipPath>
</defs>
</svg>
