<svg width="22" height="22" viewBox="0 0 22 22" fill="none" xmlns="http://www.w3.org/2000/svg">
<path d="M11 15.7454V17.3326M11 7.87257V9.34971M11 21.1983C16.5 21.1983 20.4286 19.2497 20.4286 14.9126C20.4286 10.1983 18.0714 7.05542 13.3571 4.69828L15.2114 2.30971C15.3056 2.15299 15.3567 1.97416 15.3595 1.79133C15.3623 1.6085 15.3168 1.42817 15.2274 1.26863C15.1381 1.1091 15.0082 0.976012 14.8508 0.882874C14.6935 0.789735 14.5143 0.739852 14.3314 0.738281H7.66857C7.48573 0.739852 7.30655 0.789735 7.14919 0.882874C6.99184 0.976012 6.86191 1.1091 6.77257 1.26863C6.68323 1.42817 6.63765 1.6085 6.64046 1.79133C6.64327 1.97416 6.69437 2.15299 6.78857 2.30971L8.64286 4.714C3.92857 7.08685 1.57143 10.2297 1.57143 14.944C1.57143 19.2497 5.5 21.1983 11 21.1983Z" stroke="#2D3657" stroke-width="1.57143" stroke-linecap="round" stroke-linejoin="round"/>
<path d="M9.42858 15.0223C9.62032 15.2499 9.86164 15.4305 10.134 15.5504C10.4064 15.6702 10.7027 15.7261 11 15.7137C11.4545 15.7447 11.9032 15.5983 12.252 15.3052C12.6007 15.0121 12.8223 14.5953 12.87 14.1423C12.8223 13.6893 12.6007 13.2724 12.252 12.9794C11.9032 12.6863 11.4545 12.5399 11 12.5709C10.5455 12.6018 10.0968 12.4554 9.74802 12.1623C9.39929 11.8693 9.17776 11.4524 9.13 10.9994C9.17392 10.5448 9.39438 10.1256 9.74403 9.83175C10.0937 9.53793 10.5446 9.39296 11 9.42799C11.2921 9.41012 11.5845 9.45723 11.8563 9.56592C12.128 9.6746 12.3722 9.84217 12.5714 10.0566" stroke="#2D3657" stroke-width="1.57143" stroke-linecap="round" stroke-linejoin="round"/>
</svg>
