<svg width="12" height="9" viewBox="0 0 12 9" fill="none" xmlns="http://www.w3.org/2000/svg">
<path fill-rule="evenodd" clip-rule="evenodd" d="M11.0215 3.96447H3.18636L5.41328 1.73755C5.6777 1.47313 5.6777 1.04574 5.41328 0.781321C5.14886 0.516903 4.72147 0.516903 4.45705 0.781321L1.07575 4.16262C0.811337 4.42703 0.811337 4.85443 1.07575 5.11885L4.45705 8.50014C4.58892 8.63201 4.76204 8.69828 4.93516 8.69828C5.10829 8.69828 5.28141 8.63201 5.41328 8.50014C5.6777 8.23572 5.6777 7.80833 5.41328 7.54391L3.18636 5.31699H11.0215C11.3955 5.31699 11.6978 5.01403 11.6978 4.64073C11.6978 4.26744 11.3955 3.96447 11.0215 3.96447Z" fill="#5C5F62"/>
</svg>
