<svg width="24" height="25" viewBox="0 0 24 25" fill="none" xmlns="http://www.w3.org/2000/svg">
<path d="M10.5939 24.0259L0.42378 13.5963C0.269687 13.4382 0.16028 13.2671 0.0955614 13.0827C0.0308423 12.8983 -0.00100321 12.7008 2.40772e-05 12.4901C2.40772e-05 12.2794 0.0323839 12.0819 0.0971029 11.8975C0.161822 11.7131 0.270714 11.5419 0.42378 11.3839L10.5939 0.954263C10.8764 0.664551 11.2298 0.513374 11.6541 0.500732C12.0783 0.48809 12.4441 0.639267 12.7512 0.954263C13.0594 1.24398 13.2202 1.60638 13.2335 2.04148C13.2469 2.47657 13.0989 2.85162 12.7897 3.16661L5.23918 10.9098H22.4591C22.8957 10.9098 23.2619 11.0615 23.5577 11.365C23.8536 11.6684 24.001 12.0434 24 12.4901C24 12.9378 23.8526 13.3134 23.5577 13.6168C23.2629 13.9202 22.8967 14.0714 22.4591 14.0703H5.23918L12.7897 21.8136C13.0722 22.1033 13.2202 22.472 13.2335 22.9198C13.2469 23.3675 13.0989 23.7362 12.7897 24.0259C12.5072 24.342 12.1477 24.5 11.7111 24.5C11.2745 24.5 10.9021 24.342 10.5939 24.0259Z" fill="url(#paint0_linear_222_27754)"/>
<defs>
<linearGradient id="paint0_linear_222_27754" x1="11.9124" y1="-8.69149" x2="11.9124" y2="48.2447" gradientUnits="userSpaceOnUse">
<stop stop-color="#E50F1C"/>
<stop offset="1" stop-color="#920000" stop-opacity="0.89"/>
</linearGradient>
</defs>
</svg>
