<svg width="35" height="35" viewBox="0 0 35 35" fill="none" xmlns="http://www.w3.org/2000/svg">
<g clip-path="url(#clip0_222_28217)">
<path d="M11.3267 13.4601H12.7135M12.7135 13.4601H23.8079M12.7135 13.4601V23.1677C12.7135 23.5355 12.8596 23.8883 13.1196 24.1483C13.3797 24.4084 13.7325 24.5545 14.1003 24.5545H21.0343C21.4021 24.5545 21.7548 24.4084 22.0149 24.1483C22.275 23.8883 22.4211 23.5355 22.4211 23.1677V13.4601H12.7135ZM14.7937 13.4601V12.0733C14.7937 11.7055 14.9398 11.3528 15.1998 11.0927C15.4599 10.8326 15.8127 10.6865 16.1805 10.6865H18.9541C19.3219 10.6865 19.6746 10.8326 19.9347 11.0927C20.1948 11.3528 20.3409 11.7055 20.3409 12.0733V13.4601M16.1805 16.9271V21.0875M18.9541 16.9271V21.0875" stroke="#667085" stroke-width="1.3868" stroke-linecap="round" stroke-linejoin="round"/>
</g>
<defs>
<clipPath id="clip0_222_28217">
<rect width="16.6416" height="16.6416" fill="white" transform="translate(9.24646 9.2998)"/>
</clipPath>
</defs>
</svg>
