<svg width="17" height="19" viewBox="0 0 17 19" fill="none" xmlns="http://www.w3.org/2000/svg">
<path d="M2.36901 18.3137C1.88375 18.3137 1.46819 18.1408 1.12234 17.7949C0.776479 17.4491 0.603844 17.0338 0.604433 16.5492V4.19712C0.604433 3.71186 0.777361 3.29631 1.12322 2.95045C1.46907 2.60459 1.88434 2.43196 2.36901 2.43255H3.2513V1.55026C3.2513 1.30028 3.336 1.09059 3.50539 0.921188C3.67479 0.751789 3.88419 0.667384 4.13358 0.667972C4.38357 0.667972 4.59326 0.752672 4.76266 0.922071C4.93205 1.09147 5.01646 1.30087 5.01587 1.55026V2.43255H12.0742V1.55026C12.0742 1.30028 12.1589 1.09059 12.3283 0.921188C12.4977 0.751789 12.7071 0.667384 12.9565 0.667972C13.2064 0.667972 13.4161 0.752672 13.5855 0.922071C13.7549 1.09147 13.8393 1.30087 13.8387 1.55026V2.43255H14.721C15.2063 2.43255 15.6219 2.60548 15.9677 2.95133C16.3136 3.29719 16.4862 3.71245 16.4856 4.19712V16.5492C16.4856 17.0344 16.3127 17.45 15.9668 17.7958C15.621 18.1417 15.2057 18.3143 14.721 18.3137H2.36901ZM2.36901 16.5492H14.721V7.72627H2.36901V16.5492ZM8.54502 11.2554C8.29504 11.2554 8.08535 11.1707 7.91595 11.0013C7.74655 10.8319 7.66215 10.6225 7.66274 10.3731C7.66274 10.1232 7.74744 9.91347 7.91683 9.74407C8.08623 9.57467 8.29563 9.49026 8.54502 9.49085C8.795 9.49085 9.00469 9.57555 9.17409 9.74495C9.34349 9.91435 9.4279 10.1237 9.42731 10.3731C9.42731 10.6231 9.34261 10.8328 9.17321 11.0022C9.00381 11.1716 8.79442 11.256 8.54502 11.2554ZM5.01587 11.2554C4.76589 11.2554 4.5562 11.1707 4.3868 11.0013C4.2174 10.8319 4.133 10.6225 4.13358 10.3731C4.13358 10.1232 4.21828 9.91347 4.38768 9.74407C4.55708 9.57467 4.76648 9.49026 5.01587 9.49085C5.26585 9.49085 5.47554 9.57555 5.64494 9.74495C5.81434 9.91435 5.89875 10.1237 5.89816 10.3731C5.89816 10.6231 5.81346 10.8328 5.64406 11.0022C5.47466 11.1716 5.26526 11.256 5.01587 11.2554ZM12.0742 11.2554C11.8242 11.2554 11.6145 11.1707 11.4451 11.0013C11.2757 10.8319 11.1913 10.6225 11.1919 10.3731C11.1919 10.1232 11.2766 9.91347 11.446 9.74407C11.6154 9.57467 11.8248 9.49026 12.0742 9.49085C12.3242 9.49085 12.5338 9.57555 12.7032 9.74495C12.8726 9.91435 12.9571 10.1237 12.9565 10.3731C12.9565 10.6231 12.8718 10.8328 12.7024 11.0022C12.533 11.1716 12.3236 11.256 12.0742 11.2554ZM8.54502 14.7846C8.29504 14.7846 8.08535 14.6999 7.91595 14.5305C7.74655 14.3611 7.66215 14.1517 7.66274 13.9023C7.66274 13.6523 7.74744 13.4426 7.91683 13.2732C8.08623 13.1038 8.29563 13.0194 8.54502 13.02C8.795 13.02 9.00469 13.1047 9.17409 13.2741C9.34349 13.4435 9.4279 13.6529 9.42731 13.9023C9.42731 14.1523 9.34261 14.362 9.17321 14.5314C9.00381 14.7008 8.79442 14.7852 8.54502 14.7846ZM5.01587 14.7846C4.76589 14.7846 4.5562 14.6999 4.3868 14.5305C4.2174 14.3611 4.133 14.1517 4.13358 13.9023C4.13358 13.6523 4.21828 13.4426 4.38768 13.2732C4.55708 13.1038 4.76648 13.0194 5.01587 13.02C5.26585 13.02 5.47554 13.1047 5.64494 13.2741C5.81434 13.4435 5.89875 13.6529 5.89816 13.9023C5.89816 14.1523 5.81346 14.362 5.64406 14.5314C5.47466 14.7008 5.26526 14.7852 5.01587 14.7846ZM12.0742 14.7846C11.8242 14.7846 11.6145 14.6999 11.4451 14.5305C11.2757 14.3611 11.1913 14.1517 11.1919 13.9023C11.1919 13.6523 11.2766 13.4426 11.446 13.2732C11.6154 13.1038 11.8248 13.0194 12.0742 13.02C12.3242 13.02 12.5338 13.1047 12.7032 13.2741C12.8726 13.4435 12.9571 13.6529 12.9565 13.9023C12.9565 14.1523 12.8718 14.362 12.7024 14.5314C12.533 14.7008 12.3236 14.7852 12.0742 14.7846Z" fill="#DA0D18"/>
</svg>
