<svg width="38" height="38" viewBox="0 0 38 38" fill="none" xmlns="http://www.w3.org/2000/svg">
<g clip-path="url(#clip0_222_18698)">
<path d="M11.7754 14.7785H13.3121M13.3121 14.7785H25.6056M13.3121 14.7785V25.5353C13.3121 25.9428 13.474 26.3337 13.7622 26.6219C14.0504 26.9101 14.4412 27.072 14.8488 27.072H22.5322C22.9398 27.072 23.3306 26.9101 23.6188 26.6219C23.907 26.3337 24.0689 25.9428 24.0689 25.5353V14.7785H13.3121ZM15.6171 14.7785V13.2418C15.6171 12.8342 15.779 12.4433 16.0672 12.1552C16.3554 11.867 16.7462 11.7051 17.1538 11.7051H20.2272C20.6347 11.7051 21.0256 11.867 21.3138 12.1552C21.602 12.4433 21.7639 12.8342 21.7639 13.2418V14.7785M17.1538 18.6202V23.2303M20.2272 18.6202V23.2303" stroke="#DA0D18" stroke-width="1.53669" stroke-linecap="round" stroke-linejoin="round"/>
</g>
<defs>
<clipPath id="clip0_222_18698">
<rect width="18.4403" height="18.4403" fill="white" transform="translate(9.47046 10.168)"/>
</clipPath>
</defs>
</svg>
