<svg width="20" height="19" viewBox="0 0 20 19" fill="none" xmlns="http://www.w3.org/2000/svg">
<path d="M5.42927 17.073C5.00668 17.073 4.64479 16.9224 4.3436 16.6212C4.04241 16.32 3.89207 15.9583 3.89258 15.5363V3.24275C3.89258 2.82016 4.04317 2.45827 4.34437 2.15707C4.64556 1.85588 5.00719 1.70554 5.42927 1.70606H11.576L16.1861 6.31613V9.3895H14.6494V7.08447H10.8077V3.24275H5.42927V15.5363H10.0393V17.073H5.42927ZM14.8799 11.3296L15.7059 12.1555L12.7285 15.1137V15.9204H13.5353L16.5126 12.9623L17.3194 13.7691L14.0155 17.073H11.576V14.6335L14.8799 11.3296ZM17.3194 13.7691L14.8799 11.3296L15.994 10.2155C16.1349 10.0746 16.3142 10.0042 16.5319 10.0042C16.7495 10.0042 16.9288 10.0746 17.0697 10.2155L18.4335 11.5793C18.5744 11.7202 18.6448 11.8994 18.6448 12.1171C18.6448 12.3348 18.5744 12.5141 18.4335 12.655L17.3194 13.7691Z" fill="#667085"/>
</svg>
