<svg width="21" height="20" viewBox="0 0 21 20" fill="none" xmlns="http://www.w3.org/2000/svg">
<path fill-rule="evenodd" clip-rule="evenodd" d="M0.5 10C0.5 15.514 4.986 20 10.5 20C16.014 20 20.5 15.514 20.5 10C20.5 4.486 16.014 0 10.5 0C4.986 0 0.5 4.486 0.5 10ZM15.7071 8.20711C16.0976 7.81658 16.0976 7.18342 15.7071 6.79289C15.3166 6.40237 14.6834 6.40237 14.2929 6.79289L9.5 11.5858L7.20711 9.29289C6.81658 8.90237 6.18342 8.90237 5.79289 9.29289C5.40237 9.68342 5.40237 10.3166 5.79289 10.7071L8.79289 13.7071C9.18342 14.0976 9.81658 14.0976 10.2071 13.7071L15.7071 8.20711Z" fill="#FF0000"/>
</svg>
