<svg width="12" height="13" viewBox="0 0 12 13" fill="none" xmlns="http://www.w3.org/2000/svg">
<path d="M5.48917 11.6483C5.25826 11.6483 5.03217 11.5906 4.8205 11.4752C4.39717 11.2394 4.14221 10.8113 4.14221 10.3302V7.78065C4.14221 7.54012 3.98347 7.17933 3.83434 6.99653L2.03519 5.09155C1.73213 4.78849 1.50122 4.26894 1.50122 3.87929V2.77286C1.50122 2.00317 2.0833 1.40186 2.82412 1.40186H9.17405C9.90526 1.40186 10.497 1.99355 10.497 2.72476V3.78308C10.497 4.28819 10.1939 4.86064 9.91007 5.14447L7.8271 6.98691C7.62505 7.15528 7.46631 7.52569 7.46631 7.82394V9.89248C7.46631 10.3206 7.19692 10.8161 6.86018 11.0182L6.19632 11.4463C5.97985 11.581 5.73451 11.6483 5.48917 11.6483ZM2.82412 2.12344C2.48738 2.12344 2.2228 2.40726 2.2228 2.77286V3.87929C2.2228 4.05728 2.36712 4.40364 2.54992 4.58644L4.38274 6.51547C4.62808 6.81854 4.86861 7.32365 4.86861 7.77584V10.3254C4.86861 10.6381 5.08508 10.7921 5.17648 10.8402C5.37853 10.9508 5.62386 10.9508 5.81148 10.8353L6.48014 10.4072C6.61484 10.3254 6.74953 10.0657 6.74953 9.89248V7.82394C6.74953 7.30921 6.99968 6.74157 7.36047 6.4385L9.41939 4.6153C9.58295 4.45175 9.78018 4.06209 9.78018 3.77827V2.72476C9.78018 2.39283 9.51079 2.12344 9.17886 2.12344H2.82412Z" fill="#121212"/>
<path d="M3.11276 5.92403C3.04541 5.92403 2.98287 5.90479 2.92034 5.87112C2.75197 5.76529 2.69905 5.53919 2.80488 5.37082L5.17649 1.57048C5.28232 1.40211 5.5036 1.3492 5.67197 1.45503C5.84034 1.56086 5.89326 1.78215 5.78743 1.95052L3.41582 5.75085C3.34848 5.8615 3.23302 5.92403 3.11276 5.92403Z" fill="#121212"/>
</svg>
