<svg width="12" height="9" viewBox="0 0 12 9" fill="none" xmlns="http://www.w3.org/2000/svg">
<path fill-rule="evenodd" clip-rule="evenodd" d="M10.9242 4.16262L7.54295 0.781321C7.27853 0.516903 6.85114 0.516903 6.58672 0.781321C6.3223 1.04574 6.3223 1.47313 6.58672 1.73755L8.81364 3.96447H0.978505C0.604534 3.96447 0.302246 4.26744 0.302246 4.64073C0.302246 5.01403 0.604534 5.31699 0.978505 5.31699H8.81364L6.58672 7.54391C6.3223 7.80833 6.3223 8.23572 6.58672 8.50014C6.71859 8.63201 6.89171 8.69828 7.06484 8.69828C7.23796 8.69828 7.41108 8.63201 7.54295 8.50014L10.9242 5.11885C11.1887 4.85443 11.1887 4.42703 10.9242 4.16262Z" fill="#5C5F62"/>
</svg>
