<svg width="38" height="38" viewBox="0 0 38 38" fill="none" xmlns="http://www.w3.org/2000/svg">
<g filter="url(#filter0_d_449_18544)">
<rect x="4.08276" y="1.87891" width="29.4604" height="29.4604" rx="5.23741" fill="#DA0D18"/>
</g>
<g clip-path="url(#clip0_449_18544)">
<path d="M18.813 12.0273C19.4207 12.0273 20.0036 12.2688 20.4333 12.6985C20.863 13.1282 21.1044 13.711 21.1044 14.3187C21.1044 14.9264 20.863 15.5092 20.4333 15.939C20.0036 16.3687 19.4207 16.6101 18.813 16.6101C18.2053 16.6101 17.6225 16.3687 17.1928 15.939C16.7631 15.5092 16.5217 14.9264 16.5217 14.3187C16.5217 13.711 16.7631 13.1282 17.1928 12.6985C17.6225 12.2688 18.2053 12.0273 18.813 12.0273ZM14.2303 13.664C14.5969 13.664 14.9373 13.7622 15.2319 13.939C15.1337 14.8752 15.4087 15.8048 15.9717 16.5315C15.6444 17.16 14.9897 17.5921 14.2303 17.5921C13.7094 17.5921 13.2098 17.3852 12.8415 17.0168C12.4732 16.6485 12.2663 16.149 12.2663 15.6281C12.2663 15.1072 12.4732 14.6076 12.8415 14.2393C13.2098 13.871 13.7094 13.664 14.2303 13.664ZM23.3958 13.664C23.9167 13.664 24.4162 13.871 24.7845 14.2393C25.1529 14.6076 25.3598 15.1072 25.3598 15.6281C25.3598 16.149 25.1529 16.6485 24.7845 17.0168C24.4162 17.3852 23.9167 17.5921 23.3958 17.5921C22.6363 17.5921 21.9817 17.16 21.6543 16.5315C22.2251 15.7946 22.4901 14.8661 22.3941 13.939C22.6887 13.7622 23.0291 13.664 23.3958 13.664ZM14.5576 20.3745C14.5576 19.0193 16.4627 17.9194 18.813 17.9194C21.1633 17.9194 23.0684 19.0193 23.0684 20.3745V21.5201H14.5576V20.3745ZM10.9569 21.5201V20.5381C10.9569 19.6281 12.1942 18.8622 13.8702 18.6396C13.484 19.0848 13.2483 19.7001 13.2483 20.3745V21.5201H10.9569ZM26.6691 21.5201H24.3778V20.3745C24.3778 19.7001 24.1421 19.0848 23.7558 18.6396C25.4318 18.8622 26.6691 19.6281 26.6691 20.5381V21.5201Z" fill="white"/>
</g>
<defs>
<filter id="filter0_d_449_18544" x="0.482044" y="0.569554" width="36.6619" height="36.6614" filterUnits="userSpaceOnUse" color-interpolation-filters="sRGB">
<feFlood flood-opacity="0" result="BackgroundImageFix"/>
<feColorMatrix in="SourceAlpha" type="matrix" values="0 0 0 0 0 0 0 0 0 0 0 0 0 0 0 0 0 0 127 0" result="hardAlpha"/>
<feOffset dy="2.29137"/>
<feGaussianBlur stdDeviation="1.80036"/>
<feColorMatrix type="matrix" values="0 0 0 0 0 0 0 0 0 0 0 0 0 0 0 0 0 0 0.02 0"/>
<feBlend mode="normal" in2="BackgroundImageFix" result="effect1_dropShadow_449_18544"/>
<feBlend mode="normal" in="SourceGraphic" in2="effect1_dropShadow_449_18544" result="shape"/>
</filter>
<clipPath id="clip0_449_18544">
<rect width="15.7122" height="15.7122" fill="white" transform="translate(10.9568 8.42578)"/>
</clipPath>
</defs>
</svg>
