<svg width="19" height="20" viewBox="0 0 19 20" fill="none" xmlns="http://www.w3.org/2000/svg">
<path fill-rule="evenodd" clip-rule="evenodd" d="M9.86308 0.87207H9.76901C8.95577 0.87207 8.27822 0.87207 7.74089 0.944439C7.1728 1.02043 6.65989 1.18868 6.24829 1.60028C5.83579 2.01277 5.66754 2.52568 5.59155 3.09287C5.53999 3.47913 5.52461 4.40092 5.52099 5.19155C3.69189 5.25216 2.59279 5.46564 1.83021 6.22913C0.770019 7.28842 0.77002 8.9945 0.77002 12.4058C0.77002 15.817 0.770019 17.5231 1.83021 18.5824C2.8895 19.6426 4.59558 19.6426 8.00684 19.6426H11.6252C15.0365 19.6426 16.7426 19.6426 17.8019 18.5824C18.8621 17.5231 18.8621 15.817 18.8621 12.4058C18.8621 8.9945 18.8621 7.28842 17.8019 6.22913C17.0393 5.46564 15.9402 5.25216 14.1111 5.19245C14.1075 4.40092 14.093 3.47913 14.0405 3.09377C13.9646 2.52568 13.7963 2.01277 13.3838 1.60118C12.9722 1.18868 12.4593 1.02043 11.8912 0.944439C11.3539 0.87207 10.6754 0.87207 9.86308 0.87207ZM12.7542 5.17074C12.7497 4.40454 12.737 3.58045 12.6963 3.27379C12.6393 2.85677 12.5425 2.67766 12.4249 2.56006C12.3073 2.44246 12.1282 2.34567 11.7103 2.28868C11.2743 2.23078 10.6881 2.22897 9.81604 2.22897C8.94401 2.22897 8.35783 2.23078 7.9209 2.28958C7.50388 2.34567 7.32477 2.44246 7.20717 2.56096C7.08957 2.67856 6.99278 2.85677 6.93579 3.27379C6.89508 3.58135 6.88151 4.40454 6.8779 5.17074C7.2316 5.16893 7.60881 5.16893 8.00684 5.16893H11.6252C12.0242 5.16893 12.4005 5.16893 12.7542 5.17074ZM9.81604 8.10889C9.99598 8.10889 10.1685 8.18037 10.2958 8.3076C10.423 8.43484 10.4945 8.60741 10.4945 8.78734V8.79639C11.4796 9.04425 12.3037 9.8213 12.3037 10.8978C12.3037 11.0777 12.2322 11.2503 12.105 11.3775C11.9778 11.5048 11.8052 11.5762 11.6252 11.5762C11.4453 11.5762 11.2727 11.5048 11.1455 11.3775C11.0183 11.2503 10.9468 11.0777 10.9468 10.8978C10.9468 10.5504 10.5614 10.0692 9.81604 10.0692C9.07065 10.0692 8.68529 10.5504 8.68529 10.8978C8.68529 11.2451 9.07065 11.7273 9.81604 11.7273C11.0689 11.7273 12.3037 12.5957 12.3037 13.9137C12.3037 14.9902 11.4796 15.7664 10.4945 16.0151V16.0242C10.4945 16.2041 10.423 16.3767 10.2958 16.5039C10.1685 16.6311 9.99598 16.7026 9.81604 16.7026C9.63611 16.7026 9.46354 16.6311 9.33631 16.5039C9.20907 16.3767 9.13759 16.2041 9.13759 16.0242V16.0151C8.15248 15.7673 7.32839 14.9902 7.32839 13.9137C7.32839 13.7338 7.39987 13.5612 7.5271 13.434C7.65434 13.3068 7.8269 13.2353 8.00684 13.2353C8.18678 13.2353 8.35934 13.3068 8.48658 13.434C8.61381 13.5612 8.68529 13.7338 8.68529 13.9137C8.68529 14.2611 9.07065 14.7423 9.81604 14.7423C10.5614 14.7423 10.9468 14.2611 10.9468 13.9137C10.9468 13.5664 10.5614 13.0842 9.81604 13.0842C8.56317 13.0842 7.32839 12.2158 7.32839 10.8978C7.32839 9.8213 8.15248 9.04425 9.13759 8.79639V8.78734C9.13759 8.60741 9.20907 8.43484 9.33631 8.3076C9.46354 8.18037 9.63611 8.10889 9.81604 8.10889Z" fill="white"/>
</svg>
