<svg width="19" height="19" viewBox="0 0 19 19" fill="none" xmlns="http://www.w3.org/2000/svg">
<path d="M9.64258 0.137695C4.64918 0.137695 0.596558 4.19031 0.596558 9.18372C0.596558 14.1771 4.64918 18.2297 9.64258 18.2297C14.636 18.2297 18.6886 14.1771 18.6886 9.18372C18.6886 4.19031 14.636 0.137695 9.64258 0.137695ZM12.9082 5.87288C13.8761 5.87288 14.6541 6.65083 14.6541 7.61876C14.6541 8.58668 13.8761 9.36464 12.9082 9.36464C11.9403 9.36464 11.1623 8.58668 11.1623 7.61876C11.1533 6.65083 11.9403 5.87288 12.9082 5.87288ZM7.48058 4.4436C8.65657 4.4436 9.61545 5.40248 9.61545 6.57846C9.61545 7.75445 8.65657 8.71333 7.48058 8.71333C6.3046 8.71333 5.34572 7.75445 5.34572 6.57846C5.34572 5.39344 6.29555 4.4436 7.48058 4.4436ZM7.48058 12.7026V16.0949C5.30954 15.4164 3.59079 13.7429 2.83093 11.6081C3.78076 10.5949 6.15082 10.0793 7.48058 10.0793C7.96002 10.0793 8.56611 10.1516 9.19933 10.2783C7.71578 11.0653 7.48058 12.1056 7.48058 12.7026ZM9.64258 16.4205C9.39834 16.4205 9.16314 16.4115 8.92795 16.3844V12.7026C8.92795 11.4181 11.5875 10.7758 12.9082 10.7758C13.8761 10.7758 15.5496 11.1286 16.3819 11.8161C15.3235 14.5028 12.7092 16.4205 9.64258 16.4205Z" fill="white"/>
</svg>
