<svg width="23" height="14" viewBox="0 0 23 14" fill="none" xmlns="http://www.w3.org/2000/svg">
<path d="M11.6426 0.716797C12.4823 0.716797 13.2876 1.05037 13.8814 1.64413C14.4751 2.23789 14.8087 3.0432 14.8087 3.88291C14.8087 4.72261 14.4751 5.52792 13.8814 6.12168C13.2876 6.71544 12.4823 7.04901 11.6426 7.04901C10.8029 7.04901 9.99757 6.71544 9.40381 6.12168C8.81005 5.52792 8.47647 4.72261 8.47647 3.88291C8.47647 3.0432 8.81005 2.23789 9.40381 1.64413C9.99757 1.05037 10.8029 0.716797 11.6426 0.716797ZM5.31037 2.9783C5.81694 2.9783 6.28734 3.11399 6.69441 3.35824C6.55872 4.65182 6.93865 5.93635 7.71661 6.94046C7.26431 7.80888 6.3597 8.40592 5.31037 8.40592C4.59062 8.40592 3.90035 8.12 3.39141 7.61106C2.88248 7.10213 2.59656 6.41186 2.59656 5.69211C2.59656 4.97236 2.88248 4.2821 3.39141 3.77316C3.90035 3.26422 4.59062 2.9783 5.31037 2.9783ZM17.9748 2.9783C18.6945 2.9783 19.3848 3.26422 19.8938 3.77316C20.4027 4.2821 20.6886 4.97236 20.6886 5.69211C20.6886 6.41186 20.4027 7.10213 19.8938 7.61106C19.3848 8.12 18.6945 8.40592 17.9748 8.40592C16.9255 8.40592 16.0209 7.80888 15.5686 6.94046C16.3573 5.92226 16.7233 4.63933 16.5908 3.35824C16.9978 3.11399 17.4682 2.9783 17.9748 2.9783ZM5.76267 12.2505C5.76267 10.378 8.39506 8.85822 11.6426 8.85822C14.8901 8.85822 17.5225 10.378 17.5225 12.2505V13.8335H5.76267V12.2505ZM0.787354 13.8335V12.4766C0.787354 11.2192 2.49705 10.1608 4.81283 9.85328C4.27912 10.4684 3.95346 11.3187 3.95346 12.2505V13.8335H0.787354ZM22.4978 13.8335H19.3317V12.2505C19.3317 11.3187 19.006 10.4684 18.4723 9.85328C20.7881 10.1608 22.4978 11.2192 22.4978 12.4766V13.8335Z" fill="white"/>
</svg>
