<svg width="19" height="19" viewBox="0 0 19 19" fill="none" xmlns="http://www.w3.org/2000/svg">
<path d="M9.27906 0.550781C4.2947 0.550781 0.233032 4.61245 0.233032 9.59681C0.233032 14.5812 4.2947 18.6428 9.27906 18.6428C14.2634 18.6428 18.3251 14.5812 18.3251 9.59681C18.3251 4.61245 14.2634 0.550781 9.27906 0.550781ZM8.37445 7.7876V5.07379C8.37445 4.57626 8.78153 4.16919 9.27906 4.16919C9.77659 4.16919 10.1837 4.57626 10.1837 5.07379V7.7876H11.8029C12.21 7.7876 12.409 8.27609 12.1195 8.55651L9.59567 11.0804C9.41475 11.2613 9.13432 11.2613 8.9534 11.0804L6.42956 8.55651C6.36705 8.49274 6.32481 8.4119 6.30818 8.32416C6.29154 8.23643 6.30125 8.14573 6.33607 8.0635C6.3709 7.98127 6.42929 7.91119 6.50388 7.8621C6.57846 7.813 6.66592 7.78708 6.75522 7.7876H8.37445ZM12.8975 14.1198H5.66065C5.16312 14.1198 4.75604 13.7127 4.75604 13.2152C4.75604 12.7177 5.16312 12.3106 5.66065 12.3106H12.8975C13.395 12.3106 13.8021 12.7177 13.8021 13.2152C13.8021 13.7127 13.395 14.1198 12.8975 14.1198Z" fill="white"/>
</svg>
