<svg width="19" height="19" viewBox="0 0 19 19" fill="none" xmlns="http://www.w3.org/2000/svg">
<path d="M9.9115 0.137695C4.9181 0.137695 0.865479 4.19031 0.865479 9.18372C0.865479 14.1771 4.9181 18.2297 9.9115 18.2297C14.9049 18.2297 18.9575 14.1771 18.9575 9.18372C18.9575 4.19031 14.9049 0.137695 9.9115 0.137695ZM13.1771 5.87288C14.145 5.87288 14.923 6.65083 14.923 7.61876C14.923 8.58668 14.145 9.36464 13.1771 9.36464C12.2092 9.36464 11.4312 8.58668 11.4312 7.61876C11.4222 6.65083 12.2092 5.87288 13.1771 5.87288ZM7.7495 4.4436C8.92549 4.4436 9.88437 5.40248 9.88437 6.57846C9.88437 7.75445 8.92549 8.71333 7.7495 8.71333C6.57352 8.71333 5.61464 7.75445 5.61464 6.57846C5.61464 5.39344 6.56447 4.4436 7.7495 4.4436ZM7.7495 12.7026V16.0949C5.57846 15.4164 3.85971 13.7429 3.09985 11.6081C4.04968 10.5949 6.41974 10.0793 7.7495 10.0793C8.22894 10.0793 8.83503 10.1516 9.46825 10.2783C7.9847 11.0653 7.7495 12.1056 7.7495 12.7026ZM9.9115 16.4205C9.66726 16.4205 9.43206 16.4115 9.19687 16.3844V12.7026C9.19687 11.4181 11.8564 10.7758 13.1771 10.7758C14.145 10.7758 15.8186 11.1286 16.6508 11.8161C15.5924 14.5028 12.9781 16.4205 9.9115 16.4205Z" fill="white"/>
</svg>
