<svg width="19" height="19" viewBox="0 0 19 19" fill="none" xmlns="http://www.w3.org/2000/svg">
<path d="M18.2094 0.414453C18.1242 0.321113 18.021 0.245985 17.9061 0.193598C17.7911 0.141212 17.6667 0.112652 17.5404 0.109641C17.4141 0.10663 17.2884 0.129229 17.1711 0.176077C17.0537 0.222925 16.9471 0.29305 16.8576 0.382226L16.0812 1.15609L17.4033 2.47483L18.1666 1.71538C18.3403 1.54601 18.4417 1.31602 18.4497 1.07354C18.4577 0.831055 18.3716 0.594885 18.2094 0.414453ZM9.23644 12.5757H5.98157V9.32083L6.38016 8.92309L12.2377 3.07738H0.553955V18.0033H15.4799V6.31953L9.63419 12.1771L9.23644 12.5757ZM15.4799 4.39866L16.8703 3.00529L15.552 1.68697L14.159 3.07738H15.4799V4.39866Z" fill="white"/>
</svg>
