<svg width="93" height="43" viewBox="0 0 93 43" fill="none" xmlns="http://www.w3.org/2000/svg">
<line x1="0.711538" y1="23.0512" x2="25.5341" y2="23.0512" stroke="url(#paint0_linear_449_41631)" stroke-width="1.42308" stroke-linecap="round"/>
<rect x="26.2461" y="0.762695" width="40" height="41.3793" rx="20" fill="#2D3657"/>
<path d="M38.8162 28.7626L34.9181 15.7227H38.0381L39.5786 21.8026C39.7763 22.5093 39.9474 23.2026 40.0919 23.8826C40.2497 24.5626 40.4275 25.2626 40.6252 25.9826H40.7052C40.8941 25.2626 41.0697 24.5626 41.2319 23.8826C41.3941 23.2026 41.5696 22.5093 41.7586 21.8026L43.3181 15.7227H46.3181L42.3562 28.7626H38.8162ZM51.4534 29.0026C50.6001 29.0026 49.7473 28.8426 48.895 28.5226C48.056 28.2026 47.3042 27.7359 46.6395 27.1226L48.326 25.1026C48.7913 25.5026 49.3103 25.8293 49.8828 26.0826C50.4553 26.3359 51.0083 26.4626 51.5416 26.4626C52.1549 26.4626 52.6086 26.3493 52.9027 26.1226C53.2101 25.896 53.3644 25.5893 53.3656 25.2026C53.367 24.7893 53.1946 24.4893 52.8485 24.3026C52.5158 24.1026 52.0632 23.8826 51.4906 23.6426L49.793 22.9226C49.3536 22.736 48.9343 22.4893 48.5353 22.1826C48.1364 21.8626 47.811 21.4693 47.5591 21.0026C47.3073 20.536 47.1824 19.9893 47.1844 19.3627C47.1867 18.6427 47.3821 17.9893 47.7707 17.4027C48.1726 16.816 48.7207 16.3493 49.4152 16.0027C50.123 15.656 50.9302 15.4827 51.8368 15.4827C52.5835 15.4827 53.3297 15.6293 54.0754 15.9227C54.8212 16.216 55.4731 16.6427 56.0313 17.2027L54.5254 19.0627C54.0998 18.7293 53.6739 18.476 53.2478 18.3027C52.8217 18.116 52.3487 18.0227 51.8287 18.0227C51.322 18.0227 50.915 18.1293 50.6077 18.3427C50.3137 18.5427 50.1661 18.8293 50.1649 19.2027C50.1636 19.6027 50.3493 19.9026 50.722 20.1026C51.108 20.3026 51.5807 20.516 52.14 20.7426L53.8178 21.4226C54.6034 21.7426 55.2287 22.1826 55.6935 22.7426C56.1584 23.3026 56.3894 24.0426 56.3864 24.9626C56.3841 25.6826 56.1886 26.3493 55.8 26.9626C55.4113 27.5759 54.8498 28.0693 54.1152 28.4426C53.3807 28.8159 52.4934 29.0026 51.4534 29.0026Z" fill="white"/>
<line x1="91.7806" y1="22.4723" x2="66.9581" y2="22.4723" stroke="url(#paint1_linear_449_41631)" stroke-width="1.42308" stroke-linecap="round"/>
<defs>
<linearGradient id="paint0_linear_449_41631" x1="26.2457" y1="23.7627" x2="0" y2="23.7627" gradientUnits="userSpaceOnUse">
<stop stop-color="#4B3F3F"/>
<stop offset="0.80273" stop-opacity="0"/>
</linearGradient>
<linearGradient id="paint1_linear_449_41631" x1="66.2465" y1="21.7607" x2="92.4922" y2="21.7607" gradientUnits="userSpaceOnUse">
<stop stop-color="#4B3F3F"/>
<stop offset="0.80273" stop-opacity="0"/>
</linearGradient>
</defs>
</svg>
