<svg width="34" height="35" viewBox="0 0 34 35" fill="none" xmlns="http://www.w3.org/2000/svg">
<path fill-rule="evenodd" clip-rule="evenodd" d="M16.848 34.1219C26.0281 34.1219 33.47 26.68 33.47 17.4999C33.47 8.31985 26.0281 0.87793 16.848 0.87793C7.66796 0.87793 0.226074 8.31985 0.226074 17.4999C0.226074 26.68 7.66796 34.1219 16.848 34.1219ZM22.0335 8.62115C22.2859 7.72457 21.4158 7.19439 20.6212 7.76051L9.52865 15.6628C8.66689 16.2768 8.80244 17.4999 9.73227 17.4999H12.6532V17.4773H18.3461L13.7075 19.114L11.6626 26.3787C11.4102 27.2753 12.2802 27.8054 13.0749 27.2393L24.1674 19.337C25.0292 18.7231 24.8936 17.4999 23.9638 17.4999H19.5342L22.0335 8.62115Z" fill="#DA0D18"/>
</svg>
