<svg width="43" height="14" viewBox="0 0 43 14" fill="none" xmlns="http://www.w3.org/2000/svg">
<path d="M5.382 10.6538C4.66409 10.6538 3.98814 10.5233 3.35414 10.2623C2.72947 10.0012 2.18405 9.64224 1.71787 9.18539C1.2517 8.71921 0.88342 8.17845 0.613039 7.5631C0.351982 6.93843 0.221453 6.26714 0.221453 5.54923C0.221453 4.83132 0.356643 4.16469 0.627024 3.54934C0.897405 2.93399 1.27034 2.39789 1.74584 1.94104C2.23066 1.47487 2.79473 1.11591 3.43805 0.864181C4.08138 0.603123 4.77131 0.472594 5.50787 0.472594C6.3563 0.472594 7.12549 0.626432 7.81543 0.934107C8.51469 1.24178 9.09275 1.666 9.5496 2.20676L8.05318 3.70318C7.73618 3.29295 7.36324 2.98527 6.93436 2.78016C6.50548 2.57504 6.02066 2.47248 5.4799 2.47248C4.90184 2.47248 4.38439 2.60301 3.92754 2.86407C3.47069 3.1158 3.11173 3.47476 2.85068 3.94093C2.59894 4.39778 2.47307 4.93388 2.47307 5.54923C2.47307 6.16458 2.59894 6.70534 2.85068 7.17152C3.10241 7.63769 3.44738 8.00131 3.88558 8.26236C4.32379 8.52342 4.82725 8.65395 5.39599 8.65395C5.97404 8.65395 6.46352 8.54673 6.86443 8.33229C7.27467 8.10853 7.587 7.79153 7.80144 7.3813C8.02521 6.96174 8.13709 6.45361 8.13709 5.85691L9.59155 6.83587L5.18621 6.76594V4.90591H10.3747V5.22757C10.3747 6.41165 10.1603 7.40927 9.73141 8.22041C9.31185 9.02223 8.72447 9.62825 7.96927 10.0385C7.22339 10.4487 6.36097 10.6538 5.382 10.6538ZM14.3487 10.6399C13.724 10.6399 13.1646 10.486 12.6705 10.1783C12.1857 9.87066 11.7987 9.45111 11.5097 8.91967C11.23 8.38823 11.0902 7.7822 11.0902 7.10159C11.0902 6.42098 11.23 5.81495 11.5097 5.28351C11.7987 4.75207 12.1857 4.33252 12.6705 4.02484C13.1646 3.71717 13.724 3.56333 14.3487 3.56333C14.8056 3.56333 15.2158 3.6519 15.5794 3.82905C15.9524 4.00619 16.2554 4.25327 16.4885 4.57026C16.7215 4.87794 16.8521 5.23223 16.88 5.63314V8.57004C16.8521 8.97095 16.7215 9.3299 16.4885 9.6469C16.2647 9.95458 15.9663 10.197 15.5934 10.3741C15.2205 10.5513 14.8056 10.6399 14.3487 10.6399ZM14.7823 8.70989C15.2391 8.70989 15.6074 8.56072 15.8871 8.26236C16.1668 7.95469 16.3066 7.56776 16.3066 7.10159C16.3066 6.78459 16.2414 6.50489 16.1109 6.26248C15.9896 6.02007 15.8125 5.8336 15.5794 5.70307C15.3557 5.56322 15.0946 5.49329 14.7962 5.49329C14.4979 5.49329 14.2322 5.56322 13.9991 5.70307C13.7753 5.8336 13.5935 6.02007 13.4537 6.26248C13.3231 6.50489 13.2579 6.78459 13.2579 7.10159C13.2579 7.40927 13.3231 7.68431 13.4537 7.92672C13.5842 8.16913 13.766 8.36026 13.9991 8.50011C14.2322 8.63997 14.4932 8.70989 14.7823 8.70989ZM16.2227 10.5V8.66794L16.5444 7.01768L16.2227 5.36742V3.70318H18.3205V10.5H16.2227ZM19.8271 10.5V3.70318H21.9668V10.5H19.8271ZM24.1765 10.5V6.5282C24.1765 6.18323 24.0693 5.91751 23.8548 5.73104C23.6497 5.53525 23.3933 5.43735 23.0857 5.43735C22.8712 5.43735 22.6801 5.48397 22.5123 5.5772C22.3444 5.66111 22.2092 5.78232 22.1067 5.94082C22.0135 6.09932 21.9668 6.29511 21.9668 6.5282L21.1417 6.16458C21.1417 5.62382 21.2583 5.16231 21.4913 4.78004C21.7244 4.38846 22.0414 4.09011 22.4423 3.88499C22.8432 3.67055 23.2954 3.56333 23.7989 3.56333C24.2744 3.56333 24.6986 3.67055 25.0716 3.88499C25.4538 4.09943 25.7568 4.39778 25.9806 4.78004C26.2044 5.16231 26.3162 5.61916 26.3162 6.1506V10.5H24.1765ZM28.5259 10.5V6.5282C28.5259 6.18323 28.4187 5.91751 28.2042 5.73104C27.9991 5.53525 27.7427 5.43735 27.4351 5.43735C27.2206 5.43735 27.0295 5.48397 26.8617 5.5772C26.6938 5.66111 26.5587 5.78232 26.4561 5.94082C26.3629 6.09932 26.3162 6.29511 26.3162 6.5282L25.0855 6.36037C25.1042 5.78232 25.2394 5.28817 25.4911 4.87794C25.7522 4.45838 26.0925 4.13672 26.512 3.91296C26.9409 3.67987 27.4211 3.56333 27.9525 3.56333C28.4746 3.56333 28.9361 3.67521 29.3371 3.89897C29.7473 4.11341 30.0689 4.42575 30.302 4.83598C30.5444 5.23689 30.6656 5.72171 30.6656 6.29045V10.5H28.5259ZM32.0369 10.5V0.346727H34.1766V10.5H32.0369ZM37.7812 10.528L34.9841 3.70318H37.2917L39.0678 9.11546H38.2147L40.0328 3.70318H42.3404L39.4314 10.528H37.7812ZM36.033 13.367L38.0749 8.96163L39.4314 10.528L38.2287 13.367H36.033Z" fill="#DA0D18"/>
</svg>
