<svg width="22" height="17" viewBox="0 0 22 17" fill="none" xmlns="http://www.w3.org/2000/svg">
<path d="M4.63374 0.475397C4.57337 0.40734 4.50008 0.351943 4.41814 0.312417C4.3362 0.27289 4.24723 0.250021 4.15638 0.245133C4.06553 0.240246 3.97462 0.253438 3.88891 0.283945C3.8032 0.314452 3.7244 0.361667 3.65707 0.422854C3.58974 0.484041 3.53523 0.557982 3.49669 0.640392C3.45815 0.722803 3.43635 0.812043 3.43255 0.902941C3.42875 0.99384 3.44303 1.08459 3.47456 1.16993C3.5061 1.25526 3.55425 1.33349 3.61624 1.40008L5.26968 3.21938C2.14843 5.13493 0.806086 8.08774 0.746789 8.2218C0.707698 8.30973 0.6875 8.40488 0.6875 8.5011C0.6875 8.59732 0.707698 8.69247 0.746789 8.7804C0.776867 8.84829 1.50476 10.4622 3.12296 12.0804C5.27913 14.2357 8.00249 15.3752 11 15.3752C12.5405 15.384 14.0655 15.0668 15.4748 14.4445L17.3654 16.5251C17.4258 16.5931 17.499 16.6485 17.581 16.6881C17.6629 16.7276 17.7519 16.7505 17.8427 16.7553C17.9336 16.7602 18.0245 16.747 18.1102 16.7165C18.1959 16.686 18.2747 16.6388 18.3421 16.5776C18.4094 16.5164 18.4639 16.4425 18.5024 16.3601C18.541 16.2777 18.5628 16.1884 18.5666 16.0975C18.5704 16.0066 18.5561 15.9159 18.5246 15.8306C18.493 15.7452 18.4449 15.667 18.3829 15.6004L4.63374 0.475397ZM8.70116 6.9929L12.2822 10.9331C11.7429 11.2168 11.1247 11.3134 10.5246 11.2076C9.92452 11.1019 9.37655 10.7999 8.96673 10.3489C8.55691 9.898 8.30846 9.32374 8.26039 8.7163C8.21233 8.10887 8.36737 7.50267 8.70116 6.9929ZM11 14.0002C8.35484 14.0002 6.04398 13.0386 4.13101 11.1428C3.34581 10.3625 2.67799 9.47236 2.14843 8.50024C2.55148 7.74485 3.83796 5.63079 6.21757 4.25665L7.76444 5.95391C7.16558 6.72091 6.85715 7.67493 6.89367 8.64734C6.93019 9.61975 7.30931 10.548 7.96402 11.2679C8.61873 11.9878 9.50688 12.4531 10.4715 12.5815C11.4361 12.7099 12.415 12.4931 13.2352 11.9695L14.5011 13.3617C13.3839 13.7903 12.1966 14.0069 11 14.0002ZM11.5156 5.79922C11.3365 5.76504 11.1782 5.66108 11.0757 5.51023C10.9732 5.35938 10.9349 5.174 10.9691 4.99485C11.0032 4.8157 11.1072 4.65748 11.258 4.55498C11.4089 4.45248 11.5943 4.4141 11.7734 4.44829C12.6497 4.61816 13.4475 5.06674 14.0479 5.72711C14.6484 6.38749 15.0192 7.22428 15.1052 8.11266C15.1222 8.2942 15.0664 8.47505 14.95 8.61542C14.8336 8.75579 14.6663 8.84419 14.4848 8.86118C14.4633 8.86244 14.4418 8.86244 14.4203 8.86118C14.2485 8.86191 14.0826 8.79827 13.9553 8.6828C13.8281 8.56732 13.7487 8.40837 13.7328 8.23727C13.6749 7.64636 13.4279 7.0899 13.0284 6.65064C12.629 6.21138 12.0984 5.91278 11.5156 5.79922ZM21.2506 8.7804C21.2145 8.86118 20.344 10.7888 18.3837 12.5445C18.3168 12.6064 18.2381 12.6543 18.1524 12.6855C18.0667 12.7168 17.9757 12.7306 17.8846 12.7263C17.7935 12.722 17.7042 12.6996 17.6218 12.6604C17.5394 12.6212 17.4657 12.566 17.4049 12.4981C17.344 12.4301 17.2973 12.3508 17.2675 12.2646C17.2376 12.1784 17.2252 12.0871 17.231 11.9961C17.2368 11.9051 17.2606 11.8161 17.3011 11.7344C17.3415 11.6527 17.3979 11.5798 17.4668 11.5201C18.4285 10.6561 19.2363 9.63493 19.8559 8.50024C19.3251 7.52723 18.6558 6.6365 17.869 5.85594C15.956 3.96188 13.6451 3.00024 11 3.00024C10.4426 2.99956 9.88619 3.04469 9.33624 3.13516C9.24681 3.15098 9.15513 3.14892 9.0665 3.1291C8.97787 3.10928 8.89404 3.0721 8.81986 3.0197C8.74568 2.9673 8.68262 2.90072 8.63432 2.82381C8.58601 2.7469 8.55343 2.66118 8.53844 2.57161C8.52346 2.48203 8.52637 2.39038 8.54701 2.30193C8.56764 2.21349 8.6056 2.13001 8.65869 2.05632C8.71177 1.98263 8.77893 1.92019 8.85629 1.8726C8.93364 1.82501 9.01966 1.79322 9.10937 1.77907C9.73427 1.67589 10.3666 1.62444 11 1.62524C13.9975 1.62524 16.7209 2.76477 18.877 4.92094C20.4952 6.53915 21.2231 8.15391 21.2532 8.2218C21.2923 8.30973 21.3125 8.40488 21.3125 8.5011C21.3125 8.59732 21.2923 8.69247 21.2532 8.7804H21.2506Z" fill="black"/>
</svg>
