<svg width="18" height="18" viewBox="0 0 18 18" fill="none" xmlns="http://www.w3.org/2000/svg">
<path d="M8.75847 17.4347C8.905 17.4347 9.04237 17.412 9.17057 17.3666C9.29878 17.3211 9.41783 17.2431 9.52773 17.1325L16.7807 9.87955C17.0005 9.65976 17.1104 9.39895 17.1104 9.09711C17.1104 8.79527 17.0005 8.53409 16.7807 8.31357C16.5609 8.09379 16.3045 7.98389 16.0114 7.98389C15.7184 7.98389 15.462 8.09379 15.2422 8.31357L9.85741 13.6983V1.39031C9.85741 1.07894 9.75191 0.822525 9.54091 0.621054C9.32992 0.419583 9.06911 0.318848 8.75847 0.318848C8.44711 0.318848 8.18593 0.424345 7.97494 0.63534C7.76394 0.846335 7.65881 1.10715 7.65954 1.41778V13.6983L2.27478 8.31357C2.05499 8.09379 1.79858 7.98389 1.50553 7.98389C1.21248 7.98389 0.956064 8.09379 0.736277 8.31357C0.516491 8.53336 0.406597 8.79454 0.406597 9.09711C0.406597 9.39968 0.516491 9.6605 0.736277 9.87955L7.98922 17.1325C8.09912 17.2424 8.21817 17.3204 8.34638 17.3666C8.47458 17.4127 8.61195 17.4354 8.75847 17.4347Z" fill="white"/>
</svg>
