<svg width="41" height="41" viewBox="0 0 41 41" fill="none" xmlns="http://www.w3.org/2000/svg">
<path fill-rule="evenodd" clip-rule="evenodd" d="M20.4757 40.4287C31.3879 40.4287 40.234 31.5826 40.234 20.6704C40.234 9.75821 31.3879 0.912109 20.4757 0.912109C9.56348 0.912109 0.717407 9.75821 0.717407 20.6704C0.717407 31.5826 9.56348 40.4287 20.4757 40.4287ZM26.6396 10.1164C26.9396 9.05061 25.9054 8.42039 24.9608 9.09333L11.7753 18.4867C10.7509 19.2165 10.912 20.6704 12.0173 20.6704H15.4894V20.6435H22.2564L16.7426 22.589L14.3118 31.2245C14.0118 32.2903 15.0459 32.9204 15.9906 32.2475L29.1762 22.8542C30.2005 22.1244 30.0393 20.6704 28.9341 20.6704H23.6688L26.6396 10.1164Z" fill="white"/>
</svg>
