<svg width="51" height="16" viewBox="0 0 51 16" fill="none" xmlns="http://www.w3.org/2000/svg">
<path d="M6.64195 12.5383C5.78858 12.5383 4.98508 12.3832 4.23146 12.0729C3.48892 11.7625 2.84058 11.3359 2.28645 10.7928C1.73231 10.2387 1.29455 9.59588 0.97315 8.86442C0.662835 8.12188 0.507677 7.32393 0.507677 6.47056C0.507677 5.61719 0.668376 4.82478 0.989774 4.09332C1.31117 3.36187 1.75448 2.72461 2.3197 2.18156C2.896 1.62742 3.5665 1.20074 4.33121 0.901509C5.09591 0.591193 5.91603 0.436036 6.79156 0.436036C7.80009 0.436036 8.71441 0.6189 9.53453 0.984629C10.3657 1.35036 11.0529 1.85462 11.5959 2.49742L9.81714 4.27619C9.44033 3.78855 8.99702 3.42282 8.48721 3.179C7.97741 2.93518 7.40111 2.81327 6.75831 2.81327C6.07119 2.81327 5.4561 2.96843 4.91305 3.27875C4.36999 3.57798 3.94331 4.00466 3.633 4.5588C3.33376 5.10185 3.18415 5.7391 3.18415 6.47056C3.18415 7.20202 3.33376 7.84481 3.633 8.39895C3.93223 8.95308 4.34229 9.38531 4.86317 9.69562C5.38406 10.0059 5.98253 10.1611 6.65857 10.1611C7.3457 10.1611 7.92754 10.0336 8.40409 9.77874C8.89173 9.51276 9.263 9.13595 9.5179 8.64831C9.78389 8.14959 9.91688 7.54558 9.91688 6.83629L11.6458 7.99997L6.40921 7.91685V5.70585H12.5767V6.08821C12.5767 7.49571 12.3218 8.68156 11.812 9.64575C11.3133 10.5989 10.6151 11.3192 9.71739 11.8069C8.83078 12.2945 7.80563 12.5383 6.64195 12.5383ZM17.3005 12.5217C16.558 12.5217 15.893 12.3388 15.3057 11.9731C14.7294 11.6074 14.2694 11.1087 13.9259 10.477C13.5934 9.84524 13.4271 9.12486 13.4271 8.31583C13.4271 7.50679 13.5934 6.78642 13.9259 6.1547C14.2694 5.52299 14.7294 5.02427 15.3057 4.65854C15.893 4.29281 16.558 4.10995 17.3005 4.10995C17.8436 4.10995 18.3312 4.21523 18.7635 4.4258C19.2068 4.63637 19.567 4.93007 19.844 5.30688C20.1211 5.67261 20.2763 6.09375 20.3095 6.5703V10.0614C20.2763 10.5379 20.1211 10.9646 19.844 11.3414C19.578 11.7071 19.2234 11.9953 18.7801 12.2059C18.3368 12.4164 17.8436 12.5217 17.3005 12.5217ZM17.8159 10.2276C18.3589 10.2276 18.7967 10.0503 19.1292 9.69562C19.4617 9.32989 19.6279 8.86996 19.6279 8.31583C19.6279 7.93902 19.5503 7.60654 19.3952 7.31839C19.2511 7.03024 19.0405 6.80858 18.7635 6.65342C18.4975 6.48718 18.1872 6.40406 17.8325 6.40406C17.4779 6.40406 17.162 6.48718 16.8849 6.65342C16.619 6.80858 16.4029 7.03024 16.2366 7.31839C16.0815 7.60654 16.0039 7.93902 16.0039 8.31583C16.0039 8.68156 16.0815 9.0085 16.2366 9.29665C16.3918 9.5848 16.6079 9.81199 16.8849 9.97823C17.162 10.1445 17.4723 10.2276 17.8159 10.2276ZM19.5282 12.3555V10.1777L19.9105 8.21608L19.5282 6.25445V4.27619H22.0218V12.3555H19.5282ZM23.8126 12.3555V4.27619H26.3561V12.3555H23.8126ZM28.9827 12.3555V7.63424C28.9827 7.22418 28.8553 6.90833 28.6003 6.68667C28.3565 6.45394 28.0518 6.33757 27.686 6.33757C27.4311 6.33757 27.2039 6.39298 27.0044 6.50381C26.805 6.60355 26.6443 6.74763 26.5223 6.93603C26.4115 7.12444 26.3561 7.35718 26.3561 7.63424L25.3753 7.20202C25.3753 6.55922 25.5138 6.01063 25.7909 5.55624C26.068 5.09077 26.4448 4.73612 26.9213 4.4923C27.3979 4.2374 27.9354 4.10995 28.5339 4.10995C29.0991 4.10995 29.6033 4.2374 30.0466 4.4923C30.501 4.7472 30.8612 5.10185 31.1272 5.55624C31.3932 6.01063 31.5262 6.55368 31.5262 7.18539V12.3555H28.9827ZM34.1528 12.3555V7.63424C34.1528 7.22418 34.0253 6.90833 33.7704 6.68667C33.5266 6.45394 33.2218 6.33757 32.8561 6.33757C32.6012 6.33757 32.374 6.39298 32.1745 6.50381C31.975 6.60355 31.8143 6.74763 31.6924 6.93603C31.5816 7.12444 31.5262 7.35718 31.5262 7.63424L30.0633 7.43475C30.0854 6.74763 30.2461 6.16024 30.5454 5.67261C30.8557 5.17389 31.2602 4.79153 31.7589 4.52555C32.2687 4.24848 32.8395 4.10995 33.4712 4.10995C34.0918 4.10995 34.6404 4.24294 35.117 4.50892C35.6046 4.76383 35.987 5.1351 36.264 5.62273C36.5522 6.09929 36.6963 6.67559 36.6963 7.35163V12.3555H34.1528ZM38.3262 12.3555V0.286419H40.8697V12.3555H38.3262ZM45.1544 12.3887L41.8296 4.27619H44.5725L46.6838 10.7097H45.6697L47.8308 4.27619H50.5738L47.116 12.3887H45.1544ZM43.0764 15.7634L45.5035 10.5268L47.116 12.3887L45.6863 15.7634H43.0764Z" fill="white"/>
</svg>
