<svg width="18" height="18" viewBox="0 0 18 18" fill="none" xmlns="http://www.w3.org/2000/svg">
<path d="M8.75801 0.786488C8.61148 0.786488 8.47411 0.809198 8.34591 0.854622C8.2177 0.900043 8.09865 0.978069 7.98875 1.0887L0.735807 8.34164C0.516021 8.56143 0.406128 8.82224 0.406128 9.12408C0.406128 9.42592 0.516021 9.6871 0.735807 9.90762C0.955593 10.1274 1.21201 10.2373 1.50506 10.2373C1.79811 10.2373 2.05452 10.1274 2.27431 9.90762L7.65907 4.52286V16.8309C7.65907 17.1422 7.76457 17.3987 7.97557 17.6001C8.18656 17.8016 8.44737 17.9023 8.75801 17.9023C9.06937 17.9023 9.33055 17.7968 9.54154 17.5859C9.75254 17.3749 9.85767 17.114 9.85694 16.8034V4.52286L15.2417 9.90762C15.4615 10.1274 15.7179 10.2373 16.011 10.2373C16.304 10.2373 16.5604 10.1274 16.7802 9.90762C17 9.68783 17.1099 9.42665 17.1099 9.12408C17.1099 8.82151 17 8.5607 16.7802 8.34164L9.52726 1.0887C9.41736 0.978802 9.29831 0.900778 9.1701 0.854622C9.0419 0.808466 8.90453 0.785755 8.75801 0.786488Z" fill="white"/>
</svg>
